<?xml version="1.0" encoding="UTF-8" standalone="no"?>
<!-- Created with Inkscape (http://www.inkscape.org/) -->

<svg
   xmlns:dc="http://purl.org/dc/elements/1.1/"
   xmlns:cc="http://creativecommons.org/ns#"
   xmlns:rdf="http://www.w3.org/1999/02/22-rdf-syntax-ns#"
   xmlns:svg="http://www.w3.org/2000/svg"
   xmlns="http://www.w3.org/2000/svg"
   xmlns:sodipodi="http://sodipodi.sourceforge.net/DTD/sodipodi-0.dtd"
   xmlns:inkscape="http://www.inkscape.org/namespaces/inkscape"
   width="33.526867mm"
   height="31.90925mm"
   viewBox="0 0 118.79599 113.06427"
   id="svg8510"
   version="1.1"
   inkscape:version="0.91 r13725"
   sodipodi:docname="single.svg">
  <defs
     id="defs8512" />
  <sodipodi:namedview
     id="base"
     pagecolor="#ffffff"
     bordercolor="#666666"
     borderopacity="1.0"
     inkscape:pageopacity="0.0"
     inkscape:pageshadow="2"
     inkscape:zoom="0.35"
     inkscape:cx="-608.45915"
     inkscape:cy="-109.18215"
     inkscape:document-units="px"
     inkscape:current-layer="layer1"
     showgrid="false"
     fit-margin-top="0"
     fit-margin-left="0"
     fit-margin-right="0"
     fit-margin-bottom="0"
     inkscape:window-width="1920"
     inkscape:window-height="1026"
     inkscape:window-x="0"
     inkscape:window-y="27"
     inkscape:window-maximized="1" />
  <metadata
     id="metadata8515">
    <rdf:RDF>
      <cc:Work
         rdf:about="">
        <dc:format>image/svg+xml</dc:format>
        <dc:type
           rdf:resource="http://purl.org/dc/dcmitype/StillImage" />
        <dc:title></dc:title>
      </cc:Work>
    </rdf:RDF>
  </metadata>
  <g
     inkscape:label="Layer 1"
     inkscape:groupmode="layer"
     id="layer1"
     transform="translate(-283.45915,-310.11578)">
    <g
       transform="translate(62.656132,-435.74161)"
       id="g4342">
      <path
         inkscape:connector-curvature="0"
         id="path3023-70"
         d="m 260.30004,828.71716 c -0.37384,0.35127 -1.17217,0.24098 -2.34017,-0.33647 -1.16799,-0.57745 -2.7099,-1.62237 -4.48064,-3.21295 -1.77072,-1.59057 -3.77528,-3.72887 -5.705,-6.54764 -1.92973,-2.81877 -3.78723,-6.32143 -5.04075,-10.65339 -0.84196,-2.63919 -1.58254,-5.6052 -1.96411,-8.88599 -0.38157,-3.28079 -0.40323,-6.87718 0.28306,-10.72452 0.80233,-3.83988 2.32188,-7.66319 4.55996,-11.18524 2.23806,-3.52206 5.19469,-6.74111 8.78399,-9.33471 1.23898,-0.89529 2.53601,-1.70379 3.88048,-2.41899 3.80955,-1.74386 7.97993,-2.99267 12.30014,-3.44041 4.6258,-0.49823 9.42704,0.38191 13.6105,2.60925 0,10e-6 0,10e-6 0,10e-6 4.82294,2.6743 8.01017,6.79964 9.64927,11.05064 1.0258,2.47849 1.47819,5.03827 1.45966,7.46345 -0.0185,2.42518 -0.507,4.71606 -1.32928,6.74278 0,0 0,0 0,0 -1.16517,3.06276 -2.72548,5.13795 -4.19737,6.71877 -1.47189,1.58081 -2.86723,2.66462 -4.03559,3.48249 -1.16837,0.81787 -2.12187,1.36385 -2.85986,1.6725 -0.73799,0.30865 -1.26842,0.37234 -1.5848,0.13335 -0.31636,-0.23895 -0.40179,-0.77722 -0.23919,-1.597 0.16261,-0.8198 0.58427,-1.92011 1.21677,-3.21905 0.63249,-1.29893 1.48823,-2.79122 2.27306,-4.38025 0.78481,-1.58903 1.50846,-3.26756 1.46116,-5.02003 0,0 0,0 0,0 0.20563,-1.14979 0.18651,-2.42312 -0.067,-3.74981 -0.25352,-1.32669 -0.74142,-2.70744 -1.43154,-3.99993 -1.27421,-2.1514 -3.24131,-4.14628 -5.54077,-5.0618 0,0 0,0 0,-10e-6 -1.85444,-0.89429 -4.38009,-1.04114 -7.05738,-0.73852 -2.56162,0.30692 -5.28287,1.25426 -8.12483,2.52966 -0.81009,0.42725 -1.5991,0.91958 -2.36083,1.4712 -2.20668,1.598 -4.09661,3.6277 -5.58915,5.8499 -1.49256,2.22221 -2.58671,4.63602 -3.2392,7.05542 -0.69149,2.3008 -0.84757,4.78469 -0.77244,7.30395 0.0751,2.51925 0.38118,5.07285 0.7116,7.534 0.31725,3.26133 1.25595,6.23848 2.30549,8.88896 1.04953,2.65048 2.21248,4.97312 3.18009,6.92853 0.96764,1.95541 1.74484,3.54418 2.16656,4.73478 0.42169,1.19059 0.49195,1.98579 0.11814,2.33707 z"
         style="fill:#b3b3b3;fill-opacity:1;fill-rule:evenodd;stroke:none" />
      <path
         inkscape:connector-curvature="0"
         id="path3027-74"
         d="m 267.72826,833.35218 c 0.0813,-0.50018 0.79407,-0.8679 1.99687,-1.21362 1.20283,-0.3457 2.89901,-0.67812 4.97264,-1.2084 2.07365,-0.53027 4.52967,-1.26544 7.21243,-2.39758 2.68276,-1.13216 5.59621,-2.66536 8.47635,-4.68852 2.07678,-1.63649 4.15297,-3.50433 6.00843,-5.62121 1.85546,-2.11688 3.48959,-4.48224 4.60481,-7.11114 2.52375,-5.40968 4.56022,-11.49823 5.5088,-17.88627 0.61347,-4.13143 0.73556,-8.18098 0.36464,-12.03872 -0.56398,-5.75887 -3.1339,-11.02171 -6.32322,-15.26106 -3.18931,-4.23933 -6.99747,-7.45067 -10.53545,-9.70667 0,0 0,0 0,0 -4.06796,-2.69296 -7.73575,-4.53014 -10.24562,-5.99704 -2.50987,-1.46688 -3.88192,-2.55036 -3.69425,-3.32124 0.18768,-0.77089 1.91483,-1.17073 4.95304,-1.00705 3.03821,0.16368 7.40718,0.8766 12.64918,2.90245 0,0 0,0 0,0 4.91247,1.80076 10.41872,5.07036 15.18794,10.21598 2.38461,2.5728 4.57358,5.604 6.34415,9.06662 1.7706,3.4626 3.12168,7.35682 3.80881,11.59477 0.62284,4.93062 0.58459,10.07354 -0.14467,15.22373 -1.12761,7.96326 -3.81262,15.31509 -7.25714,21.55793 -2.07349,3.81904 -4.65857,6.99366 -7.41806,9.59971 -2.7595,2.60607 -5.69265,4.64471 -8.55004,6.22484 -3.99897,2.07818 -7.95895,3.30505 -11.49298,3.91747 -3.53405,0.61243 -6.64412,0.61758 -9.1372,0.32652 -2.49306,-0.29104 -4.3738,-0.87036 -5.59189,-1.46714 -1.21809,-0.59677 -1.77881,-1.20418 -1.69757,-1.70436 z"
         style="fill:#808080;fill-opacity:1;fill-rule:evenodd;stroke:none" />
      <path
         inkscape:connector-curvature="0"
         id="path3039-4"
         d="m 237.72242,759.08243 c 0.38962,0.20065 0.34047,1.2309 -0.10914,3.02015 -0.4496,1.78926 -1.31508,4.33955 -2.44219,7.5536 -1.1271,3.21405 -2.53496,7.09092 -3.6849,11.49956 -1.14994,4.40864 -2.05678,9.34606 -1.53622,14.67769 0,0 0,0 0,0 0.23416,6.99791 1.04734,14.7314 3.63935,22.34541 1.12109,3.23132 2.57182,6.45495 4.41699,9.46078 1.84515,3.00585 4.08469,5.7936 6.78803,8.09886 3.17898,2.90652 7.01248,5.29578 11.2758,7.05487 4.26335,1.75911 8.95555,2.88807 13.76312,3.27589 3.30397,0.29718 6.64811,0.41194 9.98445,0.28742 3.93936,-0.14702 7.77726,-0.62599 11.44587,-1.48086 7.02286,-1.68607 13.46493,-4.69027 18.33441,-8.95275 4.01557,-3.10756 7.42206,-6.81708 10.22046,-10.7885 2.7984,-3.97145 4.98852,-8.20424 6.61073,-12.43433 2.28847,-5.51693 3.42412,-11.16854 3.88374,-16.51518 0.45961,-5.34666 0.24298,-10.38982 -0.27174,-14.88939 -0.65042,-3.90786 -1.58279,-7.41171 -2.65343,-10.34771 -1.07065,-2.936 -2.27523,-5.31527 -3.38189,-7.1965 -1.10666,-1.88124 -2.1097,-3.27591 -2.76513,-4.29356 -0.65542,-1.01766 -0.95693,-1.66714 -0.73909,-1.95365 0.21783,-0.28651 0.95046,-0.19639 2.11799,0.37192 1.16752,0.56831 2.7666,1.62464 4.56013,3.33567 1.79351,1.71106 3.77654,4.08859 5.61773,7.19921 1.84118,3.11063 3.53498,6.96515 4.73515,11.35822 1.21347,4.85663 2.06509,10.46722 2.06636,16.64637 0.001,6.17913 -0.84963,12.92938 -3.15044,19.84612 -1.57423,5.11785 -3.89441,10.28898 -7.055,15.20845 -3.16061,4.91946 -7.16212,9.58646 -12.04267,13.6176 -6.43106,5.81081 -14.54388,9.87437 -23.22767,11.89745 -4.49064,1.07195 -9.10629,1.68463 -13.76035,1.87296 -3.94164,0.15951 -7.83424,0.0129 -11.62708,-0.37862 -6.12979,-0.48542 -12.0778,-2.01185 -17.50233,-4.41396 -5.42452,-2.4021 -10.32461,-5.67926 -14.45508,-9.64195 -3.5638,-3.37528 -6.39348,-7.16726 -8.59981,-11.10299 -2.20633,-3.93572 -3.78963,-8.01494 -4.86567,-12.02291 -2.50961,-9.19512 -2.80416,-17.88288 -2.30844,-25.44529 0,0 0,-10e-6 0,-10e-6 0.25202,-6.7513 1.90498,-12.34588 3.79073,-17.01681 1.88576,-4.67094 4.01948,-8.42017 5.87663,-11.38067 1.85714,-2.9605 3.45689,-5.13175 4.65406,-6.53562 1.19718,-1.40388 2.00691,-2.03758 2.39652,-1.83694 z"
         style="fill:#333333;fill-opacity:1;fill-rule:evenodd;stroke:none" />
    </g>
  </g>
</svg>
